# xmcd
#
# Track frame offsets: 
#        150
#        18792
#        33531
#        40176
#        54201
#        62288
#        74083
#        79120
#        82727
#        99022
#        107095
#        121023
#        135394
#        137173
#        144555
#        154942
#        168645
#        186206
#        196259
#        207490
#
# Disc length: 2893 seconds
#
# Revision: 0
# Processed by: cddbd v1.5.2PL0 Copyright (c) Steve Scherf et al.
# Submitted via: ExactAudioCopy v0.95b4
#
DISCID=070b4b14
DTITLE=Richard Leo Johnson - The Legend of Vernon McAlister
DYEAR=2006
DGENRE=Blues
TTITLE0=Morning Glory
TTITLE1=Love and Trouble
TTITLE2=Serve up the Red Clay and Rhubarb
TTITLE3=The Porch Faces Sunset
TTITLE4=Angry Angel
TTITLE5=Briar Patch Harmony
TTITLE6=Uncertain Weather
TTITLE7=Quarter-Tone Soldiers Marching on the Mill
TTITLE8=Everything is Beautiful and Sad
TTITLE9=First Night Alone
TTITLE10=Side Road to September
TTITLE11=Boxcar Dreams and Dark Tunnels
TTITLE12=Three Wishes Wasted
TTITLE13=Triumph Over Loss
TTITLE14=Koto Cries Whiskey
TTITLE15=Eaten by Wolves at Midnight
TTITLE16=More than All the Stars in the Sky
TTITLE17=Roundhouse Right
TTITLE18=Skin and Bones
TTITLE19=Whatever You Want, Whatever You Need
EXTD=
EXTT0=
EXTT1=
EXTT2=
EXTT3=
EXTT4=
EXTT5=
EXTT6=
EXTT7=
EXTT8=
EXTT9=
EXTT10=
EXTT11=
EXTT12=
EXTT13=
EXTT14=
EXTT15=
EXTT16=
EXTT17=
EXTT18=
EXTT19=
PLAYORDER=
